<svg width="24" height="24" viewBox="0 0 24 24" fill="none" xmlns="http://www.w3.org/2000/svg">
<path d="M15 6.5C13.6193 6.5 12.5 7.61929 12.5 9C12.5 10.3807 13.6193 11.5 15 11.5C16.3807 11.5 17.5 10.3807 17.5 9C17.5 7.61929 16.3807 6.5 15 6.5Z" fill="#666666"/>
<path fill-rule="evenodd" clip-rule="evenodd" d="M3 3H21V21H18.5266L18.4945 21.0002H5.5L5.46787 21H3V3ZM19 12.8362C17.8552 13.898 16.7044 14.4537 15 14.4537C13.0944 14.4537 11.6208 13.2859 10.1527 11.7048C9.15108 10.6262 7.51491 10.4335 6.29018 11.25L6.26758 11.2651L5 12.2134V5H19V12.8362Z" fill="#666666"/>
</svg>
